<svg id="Layer_1" data-name="Layer 1" xmlns="http://www.w3.org/2000/svg" viewBox="0 0 224.67 255.66"><defs><style>.cls-1{fill:#7289da;}.cls-2{fill:#fff;}</style></defs><title>Play Icon</title><path class="cls-1" d="M193.38.17H31.29A31.29,31.29,0,0,0,0,31.45V196.18a31.28,31.28,0,0,0,31.29,31.28H173.23l-6-22.85,57.4,51.22V31.45A31.29,31.29,0,0,0,193.38.17Z" transform="translate(0 -0.17)"/><path class="cls-2" d="M65.74,56.3v115A2,2,0,0,0,68.63,173L172.9,115.53a2,2,0,0,0,0-3.42L68.63,54.59A2,2,0,0,0,65.74,56.3Z" transform="translate(0 -0.17)"/></svg>